<?xml version="1.0" encoding="utf-8" standalone="no"?>
<!DOCTYPE svg PUBLIC "-//W3C//DTD SVG 1.1//EN"
  "http://www.w3.org/Graphics/SVG/1.1/DTD/svg11.dtd">
<!-- Created with matplotlib (https://matplotlib.org/) -->
<svg height="141.84pt" version="1.1" viewBox="0 0 432 141.84" width="432pt" xmlns="http://www.w3.org/2000/svg" xmlns:xlink="http://www.w3.org/1999/xlink">
 <defs>
  <style type="text/css">
*{stroke-linecap:butt;stroke-linejoin:round;}
  </style>
 </defs>
 <g id="figure_1">
  <g id="patch_1">
   <path d="M 0 141.84 
L 432 141.84 
L 432 0 
L 0 0 
z
" style="fill:#ffffff;"/>
  </g>
  <g id="axes_1">
   <g id="line2d_1">
    <path clip-path="url(#pf2135d425d)" d="M 69.12 70.92 
L 54.026952 97.061926 
" style="fill:none;stroke:#d62728;stroke-linecap:square;stroke-width:5;"/>
   </g>
   <g id="line2d_2">
    <path clip-path="url(#pf2135d425d)" d="M 69.12 70.92 
L 84.213048 97.061926 
" style="fill:none;stroke:#d62728;stroke-linecap:square;stroke-width:5;"/>
   </g>
   <g id="line2d_3">
    <path clip-path="url(#pf2135d425d)" d="M 69.12 70.92 
L 99.306096 70.92 
" style="fill:none;stroke:#d62728;stroke-linecap:square;stroke-width:5;"/>
   </g>
   <g id="line2d_4">
    <path clip-path="url(#pf2135d425d)" d="M 69.12 70.92 
L 84.213048 44.778074 
" style="fill:none;stroke:#d62728;stroke-linecap:square;stroke-width:5;"/>
   </g>
   <g id="line2d_5">
    <path clip-path="url(#pf2135d425d)" d="M 69.12 70.92 
L 54.026952 44.778074 
" style="fill:none;stroke:#d62728;stroke-linecap:square;stroke-width:5;"/>
   </g>
   <g id="line2d_6">
    <path clip-path="url(#pf2135d425d)" d="M 69.12 70.92 
L 38.933904 70.92 
" style="fill:none;stroke:#d62728;stroke-linecap:square;stroke-width:5;"/>
   </g>
   <g id="line2d_7">
    <path clip-path="url(#pf2135d425d)" d="M 54.026952 97.061926 
L 84.213048 97.061926 
" style="fill:none;stroke:#9467bd;stroke-linecap:square;stroke-width:5;"/>
   </g>
   <g id="line2d_8">
    <path clip-path="url(#pf2135d425d)" d="M 84.213048 97.061926 
L 99.306096 70.92 
" style="fill:none;stroke:#9467bd;stroke-linecap:square;stroke-width:5;"/>
   </g>
   <g id="line2d_9">
    <path clip-path="url(#pf2135d425d)" d="M 99.306096 70.92 
L 84.213048 44.778074 
" style="fill:none;stroke:#9467bd;stroke-linecap:square;stroke-width:5;"/>
   </g>
   <g id="line2d_10">
    <path clip-path="url(#pf2135d425d)" d="M 84.213048 44.778074 
L 54.026952 44.778074 
" style="fill:none;stroke:#9467bd;stroke-linecap:square;stroke-width:5;"/>
   </g>
   <g id="line2d_11">
    <path clip-path="url(#pf2135d425d)" d="M 54.026952 44.778074 
L 38.933904 70.92 
" style="fill:none;stroke:#9467bd;stroke-linecap:square;stroke-width:5;"/>
   </g>
   <g id="line2d_12">
    <path clip-path="url(#pf2135d425d)" d="M 38.933904 70.92 
L 54.026952 97.061926 
" style="fill:none;stroke:#9467bd;stroke-linecap:square;stroke-width:5;"/>
   </g>
   <g id="line2d_13">
    <path clip-path="url(#pf2135d425d)" d="M 54.026952 97.061926 
L 69.12 134.407535 
" style="fill:none;stroke:#8c564b;stroke-linecap:square;stroke-width:5;"/>
   </g>
   <g id="line2d_14">
    <path clip-path="url(#pf2135d425d)" d="M 69.12 134.407535 
L 84.213048 97.061926 
" style="fill:none;stroke:#8c564b;stroke-linecap:square;stroke-width:5;"/>
   </g>
   <g id="line2d_15">
    <path clip-path="url(#pf2135d425d)" d="M 84.213048 97.061926 
L 124.101818 102.663768 
" style="fill:none;stroke:#8c564b;stroke-linecap:square;stroke-width:5;"/>
   </g>
   <g id="line2d_16">
    <path clip-path="url(#pf2135d425d)" d="M 124.101818 102.663768 
L 99.306096 70.92 
" style="fill:none;stroke:#8c564b;stroke-linecap:square;stroke-width:5;"/>
   </g>
   <g id="line2d_17">
    <path clip-path="url(#pf2135d425d)" d="M 99.306096 70.92 
L 124.101818 39.176232 
" style="fill:none;stroke:#8c564b;stroke-linecap:square;stroke-width:5;"/>
   </g>
   <g id="line2d_18">
    <path clip-path="url(#pf2135d425d)" d="M 124.101818 39.176232 
L 84.213048 44.778074 
" style="fill:none;stroke:#8c564b;stroke-linecap:square;stroke-width:5;"/>
   </g>
   <g id="line2d_19">
    <path clip-path="url(#pf2135d425d)" d="M 84.213048 44.778074 
L 69.12 7.432465 
" style="fill:none;stroke:#8c564b;stroke-linecap:square;stroke-width:5;"/>
   </g>
   <g id="line2d_20">
    <path clip-path="url(#pf2135d425d)" d="M 69.12 7.432465 
L 54.026952 44.778074 
" style="fill:none;stroke:#8c564b;stroke-linecap:square;stroke-width:5;"/>
   </g>
   <g id="line2d_21">
    <path clip-path="url(#pf2135d425d)" d="M 54.026952 44.778074 
L 14.138182 39.176232 
" style="fill:none;stroke:#8c564b;stroke-linecap:square;stroke-width:5;"/>
   </g>
   <g id="line2d_22">
    <path clip-path="url(#pf2135d425d)" d="M 14.138182 39.176232 
L 38.933904 70.92 
" style="fill:none;stroke:#8c564b;stroke-linecap:square;stroke-width:5;"/>
   </g>
   <g id="line2d_23">
    <path clip-path="url(#pf2135d425d)" d="M 38.933904 70.92 
L 14.138182 102.663768 
" style="fill:none;stroke:#8c564b;stroke-linecap:square;stroke-width:5;"/>
   </g>
   <g id="line2d_24">
    <path clip-path="url(#pf2135d425d)" d="M 14.138182 102.663768 
L 54.026952 97.061926 
" style="fill:none;stroke:#8c564b;stroke-linecap:square;stroke-width:5;"/>
   </g>
   <g id="line2d_25">
    <defs>
     <path d="M 0 6 
C 1.591219 6 3.117479 5.367802 4.242641 4.242641 
C 5.367802 3.117479 6 1.591219 6 0 
C 6 -1.591219 5.367802 -3.117479 4.242641 -4.242641 
C 3.117479 -5.367802 1.591219 -6 0 -6 
C -1.591219 -6 -3.117479 -5.367802 -4.242641 -4.242641 
C -5.367802 -3.117479 -6 -1.591219 -6 0 
C -6 1.591219 -5.367802 3.117479 -4.242641 4.242641 
C -3.117479 5.367802 -1.591219 6 0 6 
z
" id="m6bb3c3d040" style="stroke:#1f77b4;"/>
    </defs>
    <g clip-path="url(#pf2135d425d)">
     <use style="fill:#1f77b4;stroke:#1f77b4;" x="69.12" xlink:href="#m6bb3c3d040" y="70.92"/>
    </g>
   </g>
   <g id="line2d_26">
    <defs>
     <path d="M 0 6 
C 1.591219 6 3.117479 5.367802 4.242641 4.242641 
C 5.367802 3.117479 6 1.591219 6 0 
C 6 -1.591219 5.367802 -3.117479 4.242641 -4.242641 
C 3.117479 -5.367802 1.591219 -6 0 -6 
C -1.591219 -6 -3.117479 -5.367802 -4.242641 -4.242641 
C -5.367802 -3.117479 -6 -1.591219 -6 0 
C -6 1.591219 -5.367802 3.117479 -4.242641 4.242641 
C -3.117479 5.367802 -1.591219 6 0 6 
z
" id="m2289d0a4e9" style="stroke:#ff7f0e;"/>
    </defs>
    <g clip-path="url(#pf2135d425d)">
     <use style="fill:#ff7f0e;stroke:#ff7f0e;" x="54.026952" xlink:href="#m2289d0a4e9" y="97.061926"/>
     <use style="fill:#ff7f0e;stroke:#ff7f0e;" x="84.213048" xlink:href="#m2289d0a4e9" y="97.061926"/>
     <use style="fill:#ff7f0e;stroke:#ff7f0e;" x="99.306096" xlink:href="#m2289d0a4e9" y="70.92"/>
     <use style="fill:#ff7f0e;stroke:#ff7f0e;" x="84.213048" xlink:href="#m2289d0a4e9" y="44.778074"/>
     <use style="fill:#ff7f0e;stroke:#ff7f0e;" x="54.026952" xlink:href="#m2289d0a4e9" y="44.778074"/>
     <use style="fill:#ff7f0e;stroke:#ff7f0e;" x="38.933904" xlink:href="#m2289d0a4e9" y="70.92"/>
    </g>
   </g>
   <g id="line2d_27">
    <defs>
     <path d="M 0 6 
C 1.591219 6 3.117479 5.367802 4.242641 4.242641 
C 5.367802 3.117479 6 1.591219 6 0 
C 6 -1.591219 5.367802 -3.117479 4.242641 -4.242641 
C 3.117479 -5.367802 1.591219 -6 0 -6 
C -1.591219 -6 -3.117479 -5.367802 -4.242641 -4.242641 
C -5.367802 -3.117479 -6 -1.591219 -6 0 
C -6 1.591219 -5.367802 3.117479 -4.242641 4.242641 
C -3.117479 5.367802 -1.591219 6 0 6 
z
" id="mbe854bc2b0" style="stroke:#2ca02c;"/>
    </defs>
    <g clip-path="url(#pf2135d425d)">
     <use style="fill:#2ca02c;stroke:#2ca02c;" x="69.12" xlink:href="#mbe854bc2b0" y="134.407535"/>
     <use style="fill:#2ca02c;stroke:#2ca02c;" x="124.101818" xlink:href="#mbe854bc2b0" y="102.663768"/>
     <use style="fill:#2ca02c;stroke:#2ca02c;" x="124.101818" xlink:href="#mbe854bc2b0" y="39.176232"/>
     <use style="fill:#2ca02c;stroke:#2ca02c;" x="69.12" xlink:href="#mbe854bc2b0" y="7.432465"/>
     <use style="fill:#2ca02c;stroke:#2ca02c;" x="14.138182" xlink:href="#mbe854bc2b0" y="39.176232"/>
     <use style="fill:#2ca02c;stroke:#2ca02c;" x="14.138182" xlink:href="#mbe854bc2b0" y="102.663768"/>
    </g>
   </g>
   <g id="text_1">
    <!-- $1T-TaS_2$ -->
    <defs>
     <path d="M 12.40625 8.296875 
L 28.515625 8.296875 
L 28.515625 63.921875 
L 10.984375 60.40625 
L 10.984375 69.390625 
L 28.421875 72.90625 
L 38.28125 72.90625 
L 38.28125 8.296875 
L 54.390625 8.296875 
L 54.390625 0 
L 12.40625 0 
z
" id="DejaVuSans-49"/>
     <path d="M 5.90625 72.90625 
L 67.578125 72.90625 
L 66.015625 64.59375 
L 39.984375 64.59375 
L 27.484375 0 
L 17.578125 0 
L 30.078125 64.59375 
L 4.296875 64.59375 
z
" id="DejaVuSans-Oblique-84"/>
     <path d="M 10.59375 35.5 
L 73.1875 35.5 
L 73.1875 27.203125 
L 10.59375 27.203125 
z
" id="DejaVuSans-8722"/>
     <path d="M 53.71875 31.203125 
L 47.609375 0 
L 38.625 0 
L 40.28125 8.296875 
Q 36.328125 3.421875 31.265625 1 
Q 26.21875 -1.421875 20.015625 -1.421875 
Q 13.03125 -1.421875 8.5625 2.84375 
Q 4.109375 7.125 4.109375 13.8125 
Q 4.109375 23.390625 11.75 28.953125 
Q 19.390625 34.515625 32.8125 34.515625 
L 45.3125 34.515625 
L 45.796875 36.921875 
Q 45.90625 37.3125 45.953125 37.765625 
Q 46 38.234375 46 39.203125 
Q 46 43.5625 42.453125 45.96875 
Q 38.921875 48.390625 32.515625 48.390625 
Q 28.125 48.390625 23.5 47.265625 
Q 18.890625 46.140625 14.015625 43.890625 
L 15.578125 52.203125 
Q 20.65625 54.109375 25.515625 55.046875 
Q 30.375 56 34.90625 56 
Q 44.578125 56 49.625 51.796875 
Q 54.6875 47.609375 54.6875 39.59375 
Q 54.6875 37.984375 54.4375 35.8125 
Q 54.203125 33.640625 53.71875 31.203125 
z
M 44 27.484375 
L 35.015625 27.484375 
Q 23.96875 27.484375 18.671875 24.53125 
Q 13.375 21.578125 13.375 15.375 
Q 13.375 11.078125 16.078125 8.640625 
Q 18.796875 6.203125 23.578125 6.203125 
Q 30.90625 6.203125 36.375 11.453125 
Q 41.84375 16.703125 43.609375 25.484375 
z
" id="DejaVuSans-Oblique-97"/>
     <path d="M 60.296875 70.515625 
L 58.40625 60.890625 
Q 53.46875 63.53125 48.609375 64.875 
Q 43.75 66.21875 39.203125 66.21875 
Q 30.375 66.21875 25.140625 62.359375 
Q 19.921875 58.5 19.921875 52.09375 
Q 19.921875 48.578125 21.84375 46.703125 
Q 23.78125 44.828125 31.78125 42.671875 
L 37.703125 41.21875 
Q 47.703125 38.625 51.609375 34.640625 
Q 55.515625 30.671875 55.515625 23.484375 
Q 55.515625 12.453125 46.84375 5.515625 
Q 38.1875 -1.421875 24.03125 -1.421875 
Q 18.21875 -1.421875 12.359375 -0.265625 
Q 6.5 0.875 0.59375 3.21875 
L 2.59375 13.375 
Q 8.015625 10.015625 13.453125 8.296875 
Q 18.890625 6.59375 24.3125 6.59375 
Q 33.546875 6.59375 39.109375 10.6875 
Q 44.671875 14.796875 44.671875 21.390625 
Q 44.671875 25.78125 42.453125 28.046875 
Q 40.234375 30.328125 32.90625 32.171875 
L 27 33.6875 
Q 16.890625 36.328125 13.203125 39.765625 
Q 9.515625 43.21875 9.515625 49.421875 
Q 9.515625 60.296875 17.890625 67.25 
Q 26.265625 74.21875 39.703125 74.21875 
Q 44.921875 74.21875 50.046875 73.28125 
Q 55.171875 72.359375 60.296875 70.515625 
z
" id="DejaVuSans-Oblique-83"/>
     <path d="M 19.1875 8.296875 
L 53.609375 8.296875 
L 53.609375 0 
L 7.328125 0 
L 7.328125 8.296875 
Q 12.9375 14.109375 22.625 23.890625 
Q 32.328125 33.6875 34.8125 36.53125 
Q 39.546875 41.84375 41.421875 45.53125 
Q 43.3125 49.21875 43.3125 52.78125 
Q 43.3125 58.59375 39.234375 62.25 
Q 35.15625 65.921875 28.609375 65.921875 
Q 23.96875 65.921875 18.8125 64.3125 
Q 13.671875 62.703125 7.8125 59.421875 
L 7.8125 69.390625 
Q 13.765625 71.78125 18.9375 73 
Q 24.125 74.21875 28.421875 74.21875 
Q 39.75 74.21875 46.484375 68.546875 
Q 53.21875 62.890625 53.21875 53.421875 
Q 53.21875 48.921875 51.53125 44.890625 
Q 49.859375 40.875 45.40625 35.40625 
Q 44.1875 33.984375 37.640625 27.21875 
Q 31.109375 20.453125 19.1875 8.296875 
z
" id="DejaVuSans-50"/>
    </defs>
    <g transform="translate(141.696 87.47625)scale(0.6 -0.6)">
     <use transform="translate(0 0.78125)" xlink:href="#DejaVuSans-49"/>
     <use transform="translate(63.623047 0.78125)" xlink:href="#DejaVuSans-Oblique-84"/>
     <use transform="translate(144.189453 0.78125)" xlink:href="#DejaVuSans-8722"/>
     <use transform="translate(247.460938 0.78125)" xlink:href="#DejaVuSans-Oblique-84"/>
     <use transform="translate(308.544922 0.78125)" xlink:href="#DejaVuSans-Oblique-97"/>
     <use transform="translate(369.824219 0.78125)" xlink:href="#DejaVuSans-Oblique-83"/>
     <use transform="translate(433.300781 -15.625)scale(0.7)" xlink:href="#DejaVuSans-50"/>
    </g>
   </g>
  </g>
 </g>
 <defs>
  <clipPath id="pf2135d425d">
   <rect height="139.672577" width="120.96" x="8.64" y="1.083711"/>
  </clipPath>
 </defs>
</svg>
